%
T1C0.0118F200S100
X015812Y013875
X014875Y013875
X013375Y013687
X012562Y014500
X012187Y013375
X011500Y011812
X011937Y011562
X012312Y011562
X012000Y010250
X012437Y009687
X013125Y009937
X013312Y010312
X014187Y011187
X015286Y009726
X015551Y009495
X015982Y009727
X016440Y009729
X015180Y008595
X014749Y009000
X014625Y008187
X011437Y009187
X009937Y010000
X010687Y011812
X009437Y007187
X008312Y007187
X006125Y008375
X017125Y013875
X018125Y013875
X020750Y009687
X022125Y009937
X022187Y010437
X021687Y008625
X019187Y008625
X018812Y008625
T2C0.0394F200S100
X021870Y014209
X020870Y014209
X022870Y014209
X023187Y009875
T3C0.0433F200S100
X015640Y004810
X014640Y004810
X013640Y004810
X012640Y004810
X011640Y004810
X010203Y004810
X009203Y004810
X008203Y004810
X008203Y005810
X009203Y005810
X010203Y005810
T4C0.0512F200S100
X019870Y005458
X021870Y005458
X017870Y005458
X011000Y014500
X005000Y014500
T5C0.0591F200S100
X005640Y004998
X005640Y006966
T6C0.0709F200S100
X005250Y011748
X007809Y011748
X016076Y011748
X018635Y011748
X031843Y013996
X031843Y005689
T7C0.0984F200S100
X033344Y014402
X025470Y014402
X025470Y005347
X033344Y005347
M30
