G04 DipTrace 3.3.1.3*
G04 GBO.gbr*
%MOIN*%
G04 #@! TF.FileFunction,Legend,Bot*
G04 #@! TF.Part,Single*
%ADD10C,0.005906*%
%ADD14C,0.019685*%
%ADD18C,0.019696*%
%ADD83C,0.004632*%
%ADD85C,0.009264*%
%FSLAX26Y26*%
G04*
G70*
G90*
G75*
G01*
G04 BotSilk*
%LPD*%
X1138386Y1336516D2*
D10*
Y1212894D1*
X1199016Y1336516D2*
Y1212894D1*
X1138386D2*
X1199016D1*
X1138386Y1336516D2*
X1199016D1*
X1332126Y661378D2*
Y537756D1*
X1392756Y661378D2*
Y537756D1*
X1332126D2*
X1392756D1*
X1332126Y661378D2*
X1392756D1*
X936516Y1213386D2*
Y1337008D1*
X875886Y1213386D2*
Y1337008D1*
X936516D2*
X875886D1*
X936516Y1213386D2*
X875886D1*
X2049016Y713386D2*
Y837008D1*
X1988386Y713386D2*
Y837008D1*
X2049016D2*
X1988386D1*
X2049016Y713386D2*
X1988386D1*
X2263385D2*
X2387007D1*
X2263385Y774016D2*
X2387007D1*
Y713386D2*
Y774016D1*
X2263385Y713386D2*
Y774016D1*
X2188385Y836516D2*
Y712894D1*
X2249014Y836516D2*
Y712894D1*
X2188385D2*
X2249014D1*
X2188385Y836516D2*
X2249014D1*
X1986516Y713386D2*
Y837008D1*
X1925886Y713386D2*
Y837008D1*
X1986516D2*
X1925886D1*
X1986516Y713386D2*
X1925886D1*
X2455266Y838386D2*
Y962008D1*
X2394636Y838386D2*
Y962008D1*
X2455266D2*
X2394636D1*
X2455266Y838386D2*
X2394636D1*
X2324016Y588386D2*
Y712008D1*
X2263386Y588386D2*
Y712008D1*
X2324016D2*
X2263386D1*
X2324016Y588386D2*
X2263386D1*
X1924016Y713386D2*
Y837008D1*
X1863386Y713386D2*
Y837008D1*
X1924016D2*
X1863386D1*
X1924016Y713386D2*
X1863386D1*
X2518891Y713722D2*
X2642513D1*
X2518891Y774352D2*
X2642513D1*
Y713722D2*
Y774352D1*
X2518891Y713722D2*
Y774352D1*
X2519635Y838386D2*
X2643257D1*
X2519635Y899016D2*
X2643257D1*
Y838386D2*
Y899016D1*
X2519635Y838386D2*
Y899016D1*
X2642766Y1061516D2*
X2519144D1*
X2642766Y1000886D2*
X2519144D1*
Y1061516D2*
Y1000886D1*
X2642766Y1061516D2*
Y1000886D1*
X2517766Y1061516D2*
X2394144D1*
X2517766Y1000886D2*
X2394144D1*
Y1061516D2*
Y1000886D1*
X2517766Y1061516D2*
Y1000886D1*
X1114488Y1015709D2*
X1145709Y1046929D1*
G36*
X1099370Y1062047D2*
X1048189D1*
X1099370Y1113228D1*
Y1062047D1*
G37*
X1114488Y809449D2*
D10*
Y1015709D1*
X1145709Y1046929D2*
X1351969D1*
Y809449D1*
X1114488D1*
D14*
X1068504Y761496D3*
X1399213Y1092205D3*
D18*
X2007722Y1031804D3*
X1988346Y1053146D2*
D10*
X2131225D1*
X2161575Y1022796D2*
X2131225Y1053146D1*
X2161575Y1022796D2*
Y879917D1*
X1988346D1*
Y1053146D1*
D18*
X2138977Y900549D3*
X2968770Y570894D2*
D10*
X3027720D1*
X3562058Y1102313D2*
Y1240131D1*
Y728373D2*
G02X3404648Y570894I-161298J3817D01*
G01*
Y1397609D2*
G02X3562058Y1240131I-3889J-161296D01*
G01*
X2968770Y1397609D2*
X3027720D1*
X2771850Y826773D2*
Y1141731D1*
X2968770Y1397609D1*
X2771850Y826773D2*
X2968770Y570894D1*
X3559292Y866191D2*
G02X3559292Y1102313I114317J118061D01*
G01*
X3562058Y866191D2*
Y728373D1*
X1136024Y1338927D2*
X941142D1*
X1136024Y1210974D2*
X941142D1*
X1136024Y1338927D2*
Y1210974D1*
X941142Y1338927D2*
Y1210974D1*
X2262894Y775886D2*
X2386516D1*
X2262894Y836516D2*
X2386516D1*
Y775886D2*
Y836516D1*
X2262894Y775886D2*
Y836516D1*
X2180265D2*
X2056643D1*
X2180265Y775886D2*
X2056643D1*
Y836516D2*
Y775886D1*
X2180265Y836516D2*
Y775886D1*
X2455265Y713385D2*
Y837007D1*
X2394635Y713385D2*
Y837007D1*
X2455265D2*
X2394635D1*
X2455265Y713385D2*
X2394635D1*
X2332134Y650886D2*
X2455756D1*
X2332134Y711516D2*
X2455756D1*
Y650886D2*
Y711516D1*
X2332134Y650886D2*
Y711516D1*
X2457136Y836516D2*
Y712894D1*
X2517766Y836516D2*
Y712894D1*
X2457136D2*
X2517766D1*
X2457136Y836516D2*
X2517766D1*
Y838385D2*
Y962007D1*
X2457136Y838385D2*
Y962007D1*
X2517766D2*
X2457136D1*
X2517766Y838385D2*
X2457136D1*
X1388386Y1399016D2*
Y1275394D1*
X1449016Y1399016D2*
Y1275394D1*
X1388386D2*
X1449016D1*
X1388386Y1399016D2*
X1449016D1*
X630954Y1331201D2*
G02X630954Y1331201I31496J0D01*
G01*
X3524705Y506201D2*
G02X3524705Y506201I31496J0D01*
G01*
X644635Y669635D2*
X768257D1*
X644635Y730265D2*
X768257D1*
Y669635D2*
Y730265D1*
X644635Y669635D2*
Y730265D1*
X2324016Y1355266D2*
X2200394D1*
X2324016Y1294636D2*
X2200394D1*
Y1355266D2*
Y1294636D1*
X2324016Y1355266D2*
Y1294636D1*
X767765Y800886D2*
Y924508D1*
X707135Y800886D2*
Y924508D1*
X767765D2*
X707135D1*
X767765Y800886D2*
X707135D1*
X767766Y799017D2*
X644144D1*
X767766Y738387D2*
X644144D1*
Y799017D2*
Y738387D1*
X767766Y799017D2*
Y738387D1*
X1511516Y1212894D2*
Y1336516D1*
X1450886Y1212894D2*
Y1336516D1*
X1511516D2*
X1450886D1*
X1511516Y1212894D2*
X1450886D1*
X1894635Y1518223D2*
Y1394601D1*
X1955265Y1518223D2*
Y1394601D1*
X1894635D2*
X1955265D1*
X1894635Y1518223D2*
X1955265D1*
X1388386Y1274016D2*
Y1150394D1*
X1449016Y1274016D2*
Y1150394D1*
X1388386D2*
X1449016D1*
X1388386Y1274016D2*
X1449016D1*
X1511516Y1088386D2*
Y1212008D1*
X1450886Y1088386D2*
Y1212008D1*
X1511516D2*
X1450886D1*
X1511516Y1088386D2*
X1450886D1*
X2017766Y1394635D2*
Y1518257D1*
X1957136Y1394635D2*
Y1518257D1*
X2017766D2*
X1957136D1*
X2017766Y1394635D2*
X1957136D1*
X2017765Y1263386D2*
Y1387008D1*
X1957135Y1263386D2*
Y1387008D1*
X2017765D2*
X1957135D1*
X2017765Y1263386D2*
X1957135D1*
X599967Y1399951D2*
X999934D1*
Y1499951D1*
X599967D1*
Y1399951D1*
X1049930Y1449951D2*
X999934D1*
X599967D2*
X549971D1*
X866732Y733268D2*
X784055D1*
Y760827D1*
X878543D1*
Y745077D1*
X866732Y733268D1*
X979213D2*
X896535D1*
Y760827D1*
X991024D1*
Y745077D1*
X979213Y733268D1*
X1289665Y1420669D2*
Y1503346D1*
X1317224D1*
Y1408858D1*
X1301474D1*
X1289665Y1420669D1*
X1658406Y1424302D2*
Y1506979D1*
X1685965D1*
Y1412491D1*
X1670215D1*
X1658406Y1424302D1*
X1427165Y1420669D2*
Y1503346D1*
X1454724D1*
Y1408858D1*
X1438974D1*
X1427165Y1420669D1*
X1802165Y1424430D2*
Y1507108D1*
X1829724D1*
Y1412619D1*
X1813974D1*
X1802165Y1424430D1*
X2063809Y1123566D2*
G03X2129905Y1088529I66245J45106D01*
G01*
X2039947Y1123566D2*
Y1083551D1*
X2399957Y1088529D2*
G03X2466112Y1123566I-89J80143D01*
G01*
X2489974D2*
Y1083551D1*
X2399957Y1218550D2*
X2129905D1*
X2399957Y1248552D2*
X2129905D1*
Y1118531D2*
X2399957D1*
X2479952Y1263544D2*
X2049969D1*
X2479952D2*
G02X2489974Y1253569I37J-9985D01*
G01*
Y1213534D1*
X2399957Y1218550D2*
G02X2421790Y1213534I3J-50012D01*
G01*
X2399957Y1118531D2*
G03X2421790Y1123566I-123J50388D01*
G01*
X2399957Y1248552D2*
G02X2466112Y1213534I-33J-80061D01*
G01*
X2063809D2*
G02X2129905Y1248552I66189J-45043D01*
G01*
X2108131Y1213534D2*
G02X2129905Y1218550I21831J-44996D01*
G01*
X2108131Y1123566D2*
G03X2129905Y1118531I21958J45356D01*
G01*
X2039947Y1253569D2*
Y1213534D1*
Y1253569D2*
G02X2049969Y1263544I9985J-10D01*
G01*
X2129905Y1088529D2*
X2399957D1*
X2479952Y1073537D2*
X2049969D1*
X2479952D2*
G03X2489974Y1083551I4J10017D01*
G01*
X2039947D2*
G03X2049969Y1073537I10017J4D01*
G01*
X2254998Y1143555D2*
Y1193546D1*
X2274923D1*
Y1143555D1*
X2254998D1*
X2239966D2*
Y1168560D1*
Y1193546D1*
Y1168560D2*
X2224933D1*
X2289955Y1143555D2*
Y1168560D1*
Y1193546D1*
Y1168560D2*
X2304988D1*
X1691732Y1320916D2*
X1609055D1*
Y1348475D1*
X1703543D1*
Y1332725D1*
X1691732Y1320916D1*
X1297982Y1277165D2*
X1215304D1*
Y1304724D1*
X1309793D1*
Y1288974D1*
X1297982Y1277165D1*
X1167105Y1198976D2*
D83*
X1168531Y1201828D1*
X1171416Y1204713D1*
X1174268Y1206139D1*
X1180005D1*
X1182890Y1204713D1*
X1185742Y1201828D1*
X1187201Y1198976D1*
X1188627Y1194665D1*
Y1187469D1*
X1187201Y1183191D1*
X1185742Y1180306D1*
X1182890Y1177454D1*
X1180005Y1175995D1*
X1174268D1*
X1171416Y1177454D1*
X1168531Y1180306D1*
X1167105Y1183191D1*
X1157842Y1200368D2*
X1154957Y1201828D1*
X1150646Y1206105D1*
Y1175995D1*
X1301604Y603486D2*
X1298753Y604912D1*
X1295868Y607797D1*
X1294442Y610649D1*
Y616386D1*
X1295868Y619271D1*
X1298753Y622123D1*
X1301604Y623582D1*
X1305915Y625008D1*
X1313112D1*
X1317389Y623582D1*
X1320275Y622123D1*
X1323126Y619271D1*
X1324586Y616386D1*
Y610649D1*
X1323126Y607797D1*
X1320275Y604912D1*
X1317389Y603486D1*
X1301638Y592763D2*
X1300212D1*
X1297327Y591337D1*
X1295901Y589911D1*
X1294475Y587026D1*
Y581289D1*
X1295901Y578437D1*
X1297327Y577011D1*
X1300212Y575552D1*
X1303064D1*
X1305949Y577011D1*
X1310226Y579863D1*
X1324586Y594222D1*
X1324585Y574126D1*
X911054Y1193218D2*
X912480Y1196070D1*
X915365Y1198955D1*
X918217Y1200381D1*
X923954D1*
X926839Y1198955D1*
X929691Y1196070D1*
X931150Y1193218D1*
X932576Y1188907D1*
Y1181711D1*
X931150Y1177433D1*
X929691Y1174548D1*
X926839Y1171696D1*
X923954Y1170237D1*
X918217D1*
X915365Y1171696D1*
X912480Y1174548D1*
X911054Y1177433D1*
X898905Y1200348D2*
X883154D1*
X891742Y1188874D1*
X887431D1*
X884579Y1187448D1*
X883154Y1186022D1*
X881694Y1181711D1*
Y1178859D1*
X883154Y1174548D1*
X886005Y1171663D1*
X890316Y1170237D1*
X894627D1*
X898905Y1171663D1*
X900331Y1173122D1*
X901790Y1175974D1*
X2024268Y699469D2*
X2025694Y702321D1*
X2028579Y705206D1*
X2031431Y706632D1*
X2037168D1*
X2040053Y705206D1*
X2042905Y702321D1*
X2044364Y699469D1*
X2045790Y695158D1*
Y687962D1*
X2044364Y683684D1*
X2042905Y680799D1*
X2040053Y677947D1*
X2037168Y676488D1*
X2031431D1*
X2028579Y677947D1*
X2025694Y680799D1*
X2024268Y683684D1*
X2000646Y676488D2*
Y706599D1*
X2015005Y686536D1*
X1993483D1*
X2222862Y692037D2*
X2224288Y694889D1*
X2227173Y697774D1*
X2230025Y699200D1*
X2235762D1*
X2238647Y697774D1*
X2241499Y694889D1*
X2242958Y692037D1*
X2244384Y687726D1*
Y680530D1*
X2242958Y676252D1*
X2241499Y673367D1*
X2238647Y670515D1*
X2235762Y669056D1*
X2230025D1*
X2227173Y670515D1*
X2224288Y673367D1*
X2222862Y676252D1*
X2196388Y699167D2*
X2210714D1*
X2212140Y686267D1*
X2210714Y687693D1*
X2206403Y689152D1*
X2202125D1*
X2197814Y687693D1*
X2194929Y684841D1*
X2193503Y680530D1*
Y677678D1*
X2194929Y673367D1*
X2197814Y670482D1*
X2202125Y669056D1*
X2206403D1*
X2210714Y670482D1*
X2212140Y671941D1*
X2213599Y674793D1*
X2222824Y867726D2*
X2224250Y870578D1*
X2227135Y873463D1*
X2229987Y874889D1*
X2235724D1*
X2238609Y873463D1*
X2241461Y870578D1*
X2242920Y867726D1*
X2244346Y863415D1*
Y856219D1*
X2242920Y851941D1*
X2241461Y849056D1*
X2238609Y846204D1*
X2235724Y844745D1*
X2229987D1*
X2227135Y846204D1*
X2224250Y849056D1*
X2222824Y851941D1*
X2196350Y870578D2*
X2197776Y873430D1*
X2202087Y874856D1*
X2204939D1*
X2209250Y873430D1*
X2212135Y869119D1*
X2213561Y861956D1*
Y854793D1*
X2212135Y849056D1*
X2209250Y846171D1*
X2204939Y844745D1*
X2203513D1*
X2199235Y846171D1*
X2196350Y849056D1*
X2194924Y853367D1*
Y854793D1*
X2196350Y859104D1*
X2199235Y861956D1*
X2203513Y863382D1*
X2204939D1*
X2209250Y861956D1*
X2212135Y859104D1*
X2213561Y854793D1*
X1961055Y699469D2*
X1962481Y702321D1*
X1965366Y705206D1*
X1968218Y706632D1*
X1973955D1*
X1976840Y705206D1*
X1979692Y702321D1*
X1981151Y699469D1*
X1982577Y695158D1*
Y687962D1*
X1981151Y683684D1*
X1979692Y680799D1*
X1976840Y677947D1*
X1973955Y676488D1*
X1968218D1*
X1965366Y677947D1*
X1962481Y680799D1*
X1961055Y683684D1*
X1946055Y676488D2*
X1931696Y706599D1*
X1951792D1*
X2361233Y909011D2*
X2362659Y911863D1*
X2365544Y914748D1*
X2368396Y916174D1*
X2374133D1*
X2377018Y914748D1*
X2379870Y911863D1*
X2381329Y909011D1*
X2382755Y904700D1*
Y897504D1*
X2381329Y893226D1*
X2379870Y890341D1*
X2377018Y887489D1*
X2374133Y886030D1*
X2368396D1*
X2365544Y887489D1*
X2362659Y890341D1*
X2361233Y893226D1*
X2344806Y916141D2*
X2349084Y914715D1*
X2350543Y911863D1*
Y908978D1*
X2349084Y906126D1*
X2346232Y904667D1*
X2340495Y903241D1*
X2336184Y901815D1*
X2333332Y898930D1*
X2331907Y896078D1*
Y891767D1*
X2333332Y888915D1*
X2334758Y887456D1*
X2339069Y886030D1*
X2344806D1*
X2349084Y887456D1*
X2350543Y888915D1*
X2351969Y891767D1*
Y896078D1*
X2350543Y898930D1*
X2347658Y901815D1*
X2343380Y903241D1*
X2337644Y904667D1*
X2334758Y906126D1*
X2333332Y908978D1*
Y911863D1*
X2334758Y914715D1*
X2339069Y916141D1*
X2344806D1*
X2297842Y574468D2*
X2299268Y577320D1*
X2302153Y580205D1*
X2305005Y581631D1*
X2310742D1*
X2313627Y580205D1*
X2316479Y577320D1*
X2317938Y574468D1*
X2319364Y570157D1*
Y562961D1*
X2317938Y558683D1*
X2316479Y555798D1*
X2313627Y552946D1*
X2310742Y551487D1*
X2305005D1*
X2302153Y552946D1*
X2299268Y555798D1*
X2297842Y558683D1*
X2269909Y571583D2*
X2271368Y567272D1*
X2274220Y564387D1*
X2278531Y562961D1*
X2279957D1*
X2284268Y564387D1*
X2287120Y567272D1*
X2288579Y571583D1*
Y573009D1*
X2287120Y577320D1*
X2284268Y580172D1*
X2279957Y581598D1*
X2278531D1*
X2274220Y580172D1*
X2271368Y577320D1*
X2269909Y571583D1*
Y564387D1*
X2271368Y557224D1*
X2274220Y552913D1*
X2278531Y551487D1*
X2281383D1*
X2285694Y552913D1*
X2287120Y555798D1*
X1900534Y699469D2*
X1901960Y702321D1*
X1904845Y705206D1*
X1907697Y706632D1*
X1913434D1*
X1916319Y705206D1*
X1919171Y702321D1*
X1920630Y699469D1*
X1922056Y695158D1*
Y687962D1*
X1920630Y683684D1*
X1919171Y680799D1*
X1916319Y677947D1*
X1913434Y676488D1*
X1907697D1*
X1904845Y677947D1*
X1901960Y680799D1*
X1900534Y683684D1*
X1891271Y700862D2*
X1888386Y702321D1*
X1884075Y706599D1*
Y676488D1*
X1866189Y706599D2*
X1870500Y705173D1*
X1873385Y700862D1*
X1874811Y693699D1*
Y689388D1*
X1873385Y682225D1*
X1870500Y677914D1*
X1866189Y676488D1*
X1863337D1*
X1859026Y677914D1*
X1856174Y682225D1*
X1854715Y689388D1*
Y693699D1*
X1856174Y700862D1*
X1859026Y705173D1*
X1863337Y706599D1*
X1866189D1*
X1856174Y700862D2*
X1873385Y682225D1*
X2687191Y753956D2*
X2688617Y756808D1*
X2691502Y759693D1*
X2694354Y761119D1*
X2700091D1*
X2702976Y759693D1*
X2705828Y756808D1*
X2707287Y753956D1*
X2708713Y749645D1*
Y742449D1*
X2707287Y738171D1*
X2705828Y735286D1*
X2702976Y732434D1*
X2700091Y730975D1*
X2694354D1*
X2691502Y732434D1*
X2688617Y735286D1*
X2687191Y738171D1*
X2677927Y755349D2*
X2675042Y756808D1*
X2670731Y761086D1*
Y730975D1*
X2661468Y755349D2*
X2658583Y756808D1*
X2654272Y761086D1*
Y730975D1*
X2699845Y879537D2*
X2701271Y882389D1*
X2704156Y885274D1*
X2707008Y886700D1*
X2712745D1*
X2715630Y885274D1*
X2718482Y882389D1*
X2719941Y879537D1*
X2721367Y875226D1*
Y868030D1*
X2719941Y863752D1*
X2718482Y860867D1*
X2715630Y858015D1*
X2712745Y856556D1*
X2707008D1*
X2704156Y858015D1*
X2701271Y860867D1*
X2699845Y863752D1*
X2690582Y880930D2*
X2687697Y882389D1*
X2683386Y886667D1*
Y856556D1*
X2672663Y879504D2*
Y880930D1*
X2671237Y883815D1*
X2669811Y885241D1*
X2666926Y886667D1*
X2661189D1*
X2658337Y885241D1*
X2656911Y883815D1*
X2655452Y880930D1*
Y878078D1*
X2656911Y875193D1*
X2659763Y870915D1*
X2674122Y856556D1*
X2654026D1*
X2700289Y1036477D2*
X2701715Y1039329D1*
X2704600Y1042214D1*
X2707452Y1043640D1*
X2713189D1*
X2716074Y1042214D1*
X2718926Y1039329D1*
X2720385Y1036477D1*
X2721811Y1032166D1*
Y1024970D1*
X2720385Y1020692D1*
X2718926Y1017807D1*
X2716074Y1014955D1*
X2713189Y1013496D1*
X2707452D1*
X2704600Y1014955D1*
X2701715Y1017807D1*
X2700289Y1020692D1*
X2691025Y1037870D2*
X2688140Y1039329D1*
X2683829Y1043607D1*
Y1013496D1*
X2671681Y1043607D2*
X2655929D1*
X2664518Y1032133D1*
X2660207D1*
X2657355Y1030707D1*
X2655929Y1029281D1*
X2654470Y1024970D1*
Y1022118D1*
X2655929Y1017807D1*
X2658781Y1014922D1*
X2663092Y1013496D1*
X2667403D1*
X2671681Y1014922D1*
X2673107Y1016381D1*
X2674566Y1019233D1*
X2551002Y1098977D2*
X2552428Y1101829D1*
X2555313Y1104714D1*
X2558165Y1106140D1*
X2563902D1*
X2566787Y1104714D1*
X2569639Y1101829D1*
X2571098Y1098977D1*
X2572524Y1094666D1*
Y1087470D1*
X2571098Y1083192D1*
X2569639Y1080307D1*
X2566787Y1077455D1*
X2563902Y1075996D1*
X2558165D1*
X2555313Y1077455D1*
X2552428Y1080307D1*
X2551002Y1083192D1*
X2541738Y1100370D2*
X2538853Y1101829D1*
X2534542Y1106107D1*
Y1075996D1*
X2510920D2*
Y1106107D1*
X2525279Y1086044D1*
X2503757D1*
X1272435Y712724D2*
Y682580D1*
X1262387D1*
X1258076Y684039D1*
X1255191Y686891D1*
X1253765Y689776D1*
X1252339Y694054D1*
Y701250D1*
X1253765Y705561D1*
X1255191Y708413D1*
X1258076Y711298D1*
X1262387Y712724D1*
X1272435D1*
X1243076D2*
Y682580D1*
X1233028D1*
X1228717Y684039D1*
X1225832Y686891D1*
X1224406Y689776D1*
X1222980Y694054D1*
Y701250D1*
X1224406Y705561D1*
X1225832Y708413D1*
X1228717Y711298D1*
X1233028Y712724D1*
X1243076D1*
X1213716Y706954D2*
X1210831Y708413D1*
X1206520Y712691D1*
Y682580D1*
X1940270Y1008026D2*
X1970414D1*
Y997978D1*
X1968954Y993667D1*
X1966103Y990782D1*
X1963218Y989356D1*
X1958940Y987930D1*
X1951744D1*
X1947433Y989356D1*
X1944581Y990782D1*
X1941696Y993667D1*
X1940270Y997978D1*
Y1008026D1*
Y978666D2*
X1970414D1*
Y968618D1*
X1968954Y964307D1*
X1966103Y961422D1*
X1963218Y959996D1*
X1958940Y958570D1*
X1951744D1*
X1947433Y959996D1*
X1944581Y961422D1*
X1941696Y964307D1*
X1940270Y968618D1*
Y978666D1*
X1947466Y947848D2*
X1946040D1*
X1943155Y946422D1*
X1941729Y944996D1*
X1940303Y942111D1*
Y936374D1*
X1941729Y933522D1*
X1943155Y932096D1*
X1946040Y930637D1*
X1948892D1*
X1951777Y932096D1*
X1956055Y934948D1*
X1970414Y949307D1*
Y929211D1*
X2854303Y1355275D2*
X2855729Y1358127D1*
X2858614Y1361012D1*
X2861466Y1362438D1*
X2867203D1*
X2870088Y1361012D1*
X2872940Y1358127D1*
X2874399Y1355275D1*
X2875825Y1350964D1*
Y1343768D1*
X2874399Y1339490D1*
X2872940Y1336605D1*
X2870088Y1333753D1*
X2867203Y1332294D1*
X2861466D1*
X2858614Y1333753D1*
X2855729Y1336605D1*
X2854303Y1339490D1*
Y1343768D1*
X2861466D1*
X2845040Y1362438D2*
Y1332294D1*
X2832107D1*
X2827796Y1333753D1*
X2826370Y1335179D1*
X2824944Y1338031D1*
Y1342342D1*
X2826370Y1345227D1*
X2827796Y1346653D1*
X2832107Y1348079D1*
X2827796Y1349538D1*
X2826370Y1350964D1*
X2824944Y1353816D1*
Y1356701D1*
X2826370Y1359553D1*
X2827796Y1361012D1*
X2832107Y1362438D1*
X2845040D1*
Y1348079D2*
X2832107D1*
X2814221Y1355242D2*
Y1356668D1*
X2812795Y1359553D1*
X2811369Y1360979D1*
X2808484Y1362405D1*
X2802747D1*
X2799895Y1360979D1*
X2798469Y1359553D1*
X2797010Y1356668D1*
Y1353816D1*
X2798469Y1350931D1*
X2801321Y1346653D1*
X2815680Y1332294D1*
X2795584D1*
X1055418Y1201611D2*
Y1171467D1*
X1038207D1*
X1028943Y1195841D2*
X1026058Y1197300D1*
X1021747Y1201578D1*
Y1171467D1*
X2347990Y874199D2*
Y844055D1*
X2330779D1*
X2320056Y867003D2*
Y868429D1*
X2318630Y871314D1*
X2317204Y872740D1*
X2314319Y874166D1*
X2308582D1*
X2305731Y872740D1*
X2304305Y871314D1*
X2302845Y868429D1*
Y865577D1*
X2304305Y862692D1*
X2307156Y858414D1*
X2321515Y844055D1*
X2301419D1*
X2141739Y767950D2*
Y737806D1*
X2124528D1*
X2112380Y767916D2*
X2096628D1*
X2105217Y756442D1*
X2100906D1*
X2098054Y755017D1*
X2096628Y753591D1*
X2095169Y749280D1*
Y746428D1*
X2096628Y742117D1*
X2099480Y739232D1*
X2103791Y737806D1*
X2108102D1*
X2112380Y739232D1*
X2113806Y740691D1*
X2115265Y743543D1*
X2512419Y694262D2*
Y664118D1*
X2495209D1*
X2471586D2*
Y694229D1*
X2485945Y674166D1*
X2464423D1*
X2411755Y641738D2*
Y611594D1*
X2394544D1*
X2368070Y641705D2*
X2382396D1*
X2383821Y628805D1*
X2382396Y630231D1*
X2378084Y631690D1*
X2373807D1*
X2369496Y630231D1*
X2366611Y627379D1*
X2365185Y623068D1*
Y620216D1*
X2366611Y615905D1*
X2369496Y613020D1*
X2373807Y611594D1*
X2378084D1*
X2382396Y613020D1*
X2383821Y614479D1*
X2385281Y617331D1*
X2571057Y818871D2*
Y788727D1*
X2553846D1*
X2527372Y814560D2*
X2528798Y817412D1*
X2533109Y818838D1*
X2535960D1*
X2540271Y817412D1*
X2543157Y813101D1*
X2544583Y805938D1*
Y798775D1*
X2543157Y793038D1*
X2540271Y790153D1*
X2535960Y788727D1*
X2534535D1*
X2530257Y790153D1*
X2527372Y793038D1*
X2525946Y797349D1*
Y798775D1*
X2527372Y803086D1*
X2530257Y805938D1*
X2534535Y807364D1*
X2535960D1*
X2540271Y805938D1*
X2543157Y803086D1*
X2544583Y798775D1*
X2572025Y946347D2*
Y916203D1*
X2554814D1*
X2539814D2*
X2525455Y946314D1*
X2545551D1*
X1351615Y1349353D2*
X1348763Y1350779D1*
X1345878Y1353664D1*
X1344452Y1356516D1*
Y1362253D1*
X1345878Y1365138D1*
X1348763Y1367990D1*
X1351615Y1369449D1*
X1355926Y1370875D1*
X1363122D1*
X1367400Y1369449D1*
X1370285Y1367990D1*
X1373137Y1365138D1*
X1374596Y1362253D1*
Y1356516D1*
X1373137Y1353664D1*
X1370285Y1350779D1*
X1367400Y1349353D1*
X1350222Y1340090D2*
X1348763Y1337205D1*
X1344485Y1332894D1*
X1374596D1*
X1344485Y1306419D2*
Y1320745D1*
X1357385Y1322171D1*
X1355959Y1320745D1*
X1354500Y1316434D1*
Y1312156D1*
X1355959Y1307845D1*
X1358811Y1304960D1*
X1363122Y1303534D1*
X1365974D1*
X1370285Y1304960D1*
X1373170Y1307845D1*
X1374596Y1312156D1*
Y1316434D1*
X1373170Y1320745D1*
X1371711Y1322171D1*
X1368859Y1323630D1*
X743228Y1334596D2*
X730295D1*
X726017Y1336022D1*
X724558Y1337481D1*
X723132Y1340333D1*
Y1344644D1*
X724558Y1347496D1*
X726017Y1348955D1*
X730295Y1350381D1*
X743228D1*
Y1320237D1*
X713868Y1344611D2*
X710983Y1346070D1*
X706672Y1350348D1*
Y1320237D1*
X3512178Y503346D2*
X3499245D1*
X3494967Y504772D1*
X3493508Y506231D1*
X3492082Y509083D1*
Y513394D1*
X3493508Y516246D1*
X3494967Y517705D1*
X3499245Y519131D1*
X3512178D1*
Y488987D1*
X3481359Y511935D2*
Y513361D1*
X3479933Y516246D1*
X3478507Y517672D1*
X3475622Y519098D1*
X3469885D1*
X3467033Y517672D1*
X3465607Y516246D1*
X3464148Y513361D1*
Y510509D1*
X3465607Y507624D1*
X3468459Y503346D1*
X3482818Y488987D1*
X3462722D1*
X724724Y647341D2*
X711824D1*
X707513Y648800D1*
X706054Y650226D1*
X704628Y653078D1*
Y655963D1*
X706054Y658815D1*
X707513Y660274D1*
X711824Y661700D1*
X724724D1*
Y631556D1*
X714676Y647341D2*
X704628Y631556D1*
X695364Y655930D2*
X692479Y657389D1*
X688168Y661667D1*
Y631556D1*
X2380683Y1328592D2*
X2367783D1*
X2363472Y1330051D1*
X2362013Y1331477D1*
X2360587Y1334329D1*
Y1337214D1*
X2362013Y1340066D1*
X2363472Y1341525D1*
X2367783Y1342951D1*
X2380683D1*
Y1312807D1*
X2370635Y1328592D2*
X2360587Y1312807D1*
X2349864Y1335755D2*
Y1337181D1*
X2348439Y1340066D1*
X2347013Y1341492D1*
X2344128Y1342918D1*
X2338391D1*
X2335539Y1341492D1*
X2334113Y1340066D1*
X2332654Y1337181D1*
Y1334329D1*
X2334113Y1331444D1*
X2336965Y1327166D1*
X2351324Y1312807D1*
X2331228D1*
X763114Y948522D2*
X750214D1*
X745903Y949981D1*
X744444Y951407D1*
X743018Y954259D1*
Y957144D1*
X744444Y959996D1*
X745903Y961455D1*
X750214Y962881D1*
X763114D1*
Y932737D1*
X753066Y948522D2*
X743018Y932737D1*
X730869Y962848D2*
X715117D1*
X723706Y951374D1*
X719395D1*
X716543Y949948D1*
X715117Y948522D1*
X713658Y944211D1*
Y941359D1*
X715117Y937048D1*
X717969Y934163D1*
X722280Y932737D1*
X726591D1*
X730869Y934163D1*
X732295Y935622D1*
X733754Y938474D1*
X694832Y823032D2*
X681932D1*
X677621Y824491D1*
X676162Y825917D1*
X674736Y828768D1*
Y831654D1*
X676162Y834505D1*
X677621Y835965D1*
X681932Y837391D1*
X694832D1*
Y807247D1*
X684784Y823032D2*
X674736Y807247D1*
X651113D2*
Y837357D1*
X665472Y817295D1*
X643950D1*
X1506864Y1360529D2*
X1493964D1*
X1489653Y1361988D1*
X1488194Y1363414D1*
X1486768Y1366266D1*
Y1369151D1*
X1488194Y1372003D1*
X1489653Y1373462D1*
X1493964Y1374888D1*
X1506864D1*
Y1344744D1*
X1496816Y1360529D2*
X1486768Y1344744D1*
X1460294Y1374855D2*
X1474620D1*
X1476046Y1361955D1*
X1474620Y1363381D1*
X1470309Y1364840D1*
X1466031D1*
X1461720Y1363381D1*
X1458835Y1360529D1*
X1457409Y1356218D1*
Y1353366D1*
X1458835Y1349055D1*
X1461720Y1346170D1*
X1466031Y1344744D1*
X1470309D1*
X1474620Y1346170D1*
X1476046Y1347629D1*
X1477505Y1350481D1*
X1944363Y1360988D2*
X1931463D1*
X1927152Y1362447D1*
X1925693Y1363873D1*
X1924267Y1366725D1*
Y1369610D1*
X1925693Y1372462D1*
X1927152Y1373921D1*
X1931463Y1375347D1*
X1944363D1*
Y1345203D1*
X1934315Y1360988D2*
X1924267Y1345203D1*
X1909266D2*
X1894907Y1375314D1*
X1915003D1*
X1365062Y1236916D2*
Y1224016D1*
X1363603Y1219705D1*
X1362177Y1218246D1*
X1359325Y1216820D1*
X1356440D1*
X1353588Y1218246D1*
X1352129Y1219705D1*
X1350703Y1224016D1*
Y1236916D1*
X1380847D1*
X1365062Y1226868D2*
X1380847Y1216820D1*
X1350736Y1200394D2*
X1352162Y1204671D1*
X1355014Y1206131D1*
X1357899D1*
X1360751Y1204671D1*
X1362210Y1201819D1*
X1363636Y1196083D1*
X1365062Y1191772D1*
X1367947Y1188920D1*
X1370799Y1187494D1*
X1375110D1*
X1377962Y1188920D1*
X1379421Y1190346D1*
X1380847Y1194657D1*
Y1200393D1*
X1379421Y1204671D1*
X1377962Y1206130D1*
X1375110Y1207556D1*
X1370799D1*
X1367947Y1206130D1*
X1365062Y1203245D1*
X1363636Y1198968D1*
X1362210Y1193231D1*
X1360751Y1190346D1*
X1357899Y1188920D1*
X1355014D1*
X1352162Y1190346D1*
X1350736Y1194657D1*
Y1200394D1*
X1499901Y1067272D2*
X1487001D1*
X1482690Y1068731D1*
X1481231Y1070157D1*
X1479805Y1073009D1*
Y1075894D1*
X1481231Y1078746D1*
X1482690Y1080205D1*
X1487001Y1081631D1*
X1499901D1*
Y1051487D1*
X1489853Y1067272D2*
X1479805Y1051487D1*
X1451871Y1071583D2*
X1453330Y1067272D1*
X1456182Y1064387D1*
X1460493Y1062961D1*
X1461919D1*
X1466230Y1064387D1*
X1469082Y1067272D1*
X1470541Y1071583D1*
Y1073009D1*
X1469082Y1077320D1*
X1466230Y1080172D1*
X1461919Y1081598D1*
X1460493D1*
X1456182Y1080172D1*
X1453330Y1077320D1*
X1451871Y1071583D1*
Y1064387D1*
X1453330Y1057224D1*
X1456182Y1052913D1*
X1460493Y1051487D1*
X1463345D1*
X1467656Y1052913D1*
X1469082Y1055798D1*
X2096345Y1492270D2*
X2083445D1*
X2079134Y1493729D1*
X2077675Y1495155D1*
X2076249Y1498007D1*
Y1500892D1*
X2077675Y1503744D1*
X2079134Y1505203D1*
X2083445Y1506629D1*
X2096345D1*
Y1476485D1*
X2086297Y1492270D2*
X2076249Y1476485D1*
X2066985Y1500859D2*
X2064100Y1502318D1*
X2059789Y1506596D1*
Y1476485D1*
X2041903Y1506596D2*
X2046215Y1505170D1*
X2049100Y1500859D1*
X2050526Y1493696D1*
Y1489385D1*
X2049100Y1482222D1*
X2046215Y1477911D1*
X2041903Y1476485D1*
X2039052D1*
X2034741Y1477911D1*
X2031889Y1482222D1*
X2030430Y1489385D1*
Y1493696D1*
X2031889Y1500859D1*
X2034741Y1505170D1*
X2039052Y1506596D1*
X2041903D1*
X2031889Y1500859D2*
X2049100Y1482222D1*
X1946143Y1298522D2*
X1933243D1*
X1928932Y1299981D1*
X1927473Y1301407D1*
X1926047Y1304259D1*
Y1307144D1*
X1927473Y1309996D1*
X1928932Y1311455D1*
X1933243Y1312881D1*
X1946143D1*
Y1282737D1*
X1936095Y1298522D2*
X1926047Y1282737D1*
X1916783Y1307111D2*
X1913898Y1308570D1*
X1909587Y1312848D1*
Y1282737D1*
X1900324Y1307111D2*
X1897439Y1308570D1*
X1893128Y1312848D1*
Y1282737D1*
X805848Y1458325D2*
X808700Y1461210D1*
X813011Y1462636D1*
X818748D1*
X823059Y1461210D1*
X825944Y1458325D1*
Y1455473D1*
X824485Y1452588D1*
X823059Y1451162D1*
X820207Y1449736D1*
X811585Y1446851D1*
X808700Y1445425D1*
X807274Y1443966D1*
X805848Y1441114D1*
Y1436803D1*
X808700Y1433951D1*
X813011Y1432492D1*
X818748D1*
X823059Y1433951D1*
X825944Y1436803D1*
X777914Y1462636D2*
X796585D1*
Y1432492D1*
Y1448277D2*
X785111D1*
X768651Y1456866D2*
X765766Y1458325D1*
X761455Y1462603D1*
Y1432492D1*
X866470Y872230D2*
X854996Y842086D1*
X843522Y872230D1*
X834259D2*
Y842086D1*
X824211D1*
X819900Y843546D1*
X817015Y846397D1*
X815589Y849283D1*
X814163Y853560D1*
Y860756D1*
X815589Y865068D1*
X817015Y867919D1*
X819900Y870804D1*
X824211Y872230D1*
X834259D1*
X804899Y866460D2*
X802014Y867919D1*
X797703Y872197D1*
Y842086D1*
X985400Y872230D2*
X973926Y842086D1*
X962453Y872230D1*
X953189D2*
Y842086D1*
X943141D1*
X938830Y843546D1*
X935945Y846397D1*
X934519Y849283D1*
X933093Y853560D1*
Y860756D1*
X934519Y865068D1*
X935945Y867919D1*
X938830Y870804D1*
X943141Y872230D1*
X953189D1*
X922370Y865034D2*
Y866460D1*
X920944Y869345D1*
X919518Y870771D1*
X916633Y872197D1*
X910896D1*
X908044Y870771D1*
X906618Y869345D1*
X905159Y866460D1*
Y863608D1*
X906618Y860723D1*
X909470Y856445D1*
X923829Y842086D1*
X903733D1*
X1337828Y1549249D2*
X1326354Y1519105D1*
X1314881Y1549249D1*
X1295569D2*
Y1519105D1*
X1305617Y1549249D2*
X1285521D1*
X1276257Y1543479D2*
X1273372Y1544938D1*
X1269061Y1549216D1*
Y1519105D1*
X1553251Y1506032D2*
X1583395Y1494558D1*
X1553251Y1483084D1*
Y1463772D2*
X1583395D1*
X1553251Y1473820D2*
Y1453724D1*
X1560447Y1443002D2*
X1559021D1*
X1556136Y1441576D1*
X1554710Y1440150D1*
X1553284Y1437265D1*
Y1431528D1*
X1554710Y1428676D1*
X1556136Y1427250D1*
X1559021Y1425791D1*
X1561873D1*
X1564758Y1427250D1*
X1569036Y1430102D1*
X1583395Y1444461D1*
Y1424365D1*
X1481778Y1549249D2*
X1470304Y1519105D1*
X1458830Y1549249D1*
X1439519D2*
Y1519105D1*
X1449567Y1549249D2*
X1429471D1*
X1417322Y1549216D2*
X1401570D1*
X1410159Y1537742D1*
X1405848D1*
X1402996Y1536316D1*
X1401570Y1534890D1*
X1400111Y1530579D1*
Y1527727D1*
X1401570Y1523416D1*
X1404422Y1520531D1*
X1408733Y1519105D1*
X1413044D1*
X1417322Y1520531D1*
X1418748Y1521990D1*
X1420207Y1524842D1*
X1844991Y1390510D2*
X1833517Y1360366D1*
X1822043Y1390510D1*
X1802732D2*
Y1360366D1*
X1812780Y1390510D2*
X1792684D1*
X1769061Y1360366D2*
Y1390477D1*
X1783420Y1370414D1*
X1761898D1*
X2480610Y1301227D2*
X2460514D1*
X2480610Y1271083D1*
X2460514D1*
X2442629Y1301227D2*
X2445480Y1299834D1*
X2448365Y1296949D1*
X2449791Y1294064D1*
X2451251Y1289753D1*
Y1282590D1*
X2449791Y1278279D1*
X2448365Y1275427D1*
X2445480Y1272542D1*
X2442629Y1271116D1*
X2436892D1*
X2434006Y1272542D1*
X2431155Y1275427D1*
X2429729Y1278279D1*
X2428269Y1282590D1*
Y1289753D1*
X2429729Y1294064D1*
X2431155Y1296949D1*
X2434006Y1299834D1*
X2436892Y1301227D1*
X2442629D1*
X2438317Y1276853D2*
X2429729Y1268231D1*
X2419006Y1295457D2*
X2416121Y1296916D1*
X2411810Y1301194D1*
Y1271083D1*
X1556902Y1383759D2*
X1587046Y1372285D1*
X1556902Y1360811D1*
Y1341499D2*
X1587046D1*
X1556902Y1351547D2*
Y1331451D1*
X1562672Y1322188D2*
X1561213Y1319303D1*
X1556935Y1314992D1*
X1587046D1*
X1556935Y1297106D2*
X1558361Y1301417D1*
X1562672Y1304302D1*
X1569835Y1305728D1*
X1574146D1*
X1581309Y1304302D1*
X1585620Y1301417D1*
X1587046Y1297106D1*
Y1294254D1*
X1585620Y1289943D1*
X1581309Y1287091D1*
X1574146Y1285632D1*
X1569835D1*
X1562672Y1287091D1*
X1558361Y1289943D1*
X1556935Y1294254D1*
Y1297106D1*
X1562672Y1287091D2*
X1581309Y1304302D1*
X1306149Y1203628D2*
X1294675Y1173484D1*
X1283201Y1203628D1*
X1263889D2*
Y1173484D1*
X1273937Y1203628D2*
X1253841D1*
X1244578Y1197858D2*
X1241693Y1199317D1*
X1237382Y1203595D1*
Y1173484D1*
X1225233Y1203595D2*
X1209481D1*
X1218070Y1192121D1*
X1213759D1*
X1210907Y1190695D1*
X1209481Y1189269D1*
X1208022Y1184958D1*
Y1182106D1*
X1209481Y1177795D1*
X1212333Y1174910D1*
X1216644Y1173484D1*
X1220955D1*
X1225233Y1174910D1*
X1226659Y1176369D1*
X1228118Y1179221D1*
X3606860Y729347D2*
D85*
Y755213D1*
X3609712Y763769D1*
X3612631Y766687D1*
X3618334Y769539D1*
X3626956D1*
X3632660Y766687D1*
X3635578Y763769D1*
X3638430Y755213D1*
Y729347D1*
X3578142D1*
X3638430Y825340D2*
Y788066D1*
X3578142D1*
Y825340D1*
X3609712Y788066D2*
Y811014D1*
X3629808Y843867D2*
X3635578Y849570D1*
X3638430Y858193D1*
Y869666D1*
X3635578Y878289D1*
X3629808Y884059D1*
X3624105D1*
X3618334Y881140D1*
X3615482Y878289D1*
X3612631Y872585D1*
Y872386D2*
X3609978Y858193D1*
X3606860Y872585D2*
X3604009Y878355D1*
X3601090Y881207D1*
X3595386Y884059D1*
X3586764D1*
X3581061Y878355D1*
X3578142Y869733D1*
Y858259D1*
X3581061Y849637D1*
X3586764Y843867D1*
X3609978Y858193D2*
X3606860Y872585D1*
X3638430Y939860D2*
Y902586D1*
X3578142D1*
Y939860D1*
X3609712Y902586D2*
Y925534D1*
X3606860Y958387D2*
Y984253D1*
X3609712Y992808D1*
X3612631Y995727D1*
X3618334Y998579D1*
X3626956D1*
X3632660Y995727D1*
X3635578Y992808D1*
X3638430Y984253D1*
Y958387D1*
X3578142D1*
X3638430Y1017106D2*
X3578142D1*
Y1042972D1*
X3581061Y1051594D1*
X3583913Y1054446D1*
X3589616Y1057298D1*
X3598238D1*
X3604009Y1054446D1*
X3606860Y1051594D1*
X3609712Y1042972D1*
X3612631Y1051594D1*
X3615482Y1054446D1*
X3621186Y1057298D1*
X3626956D1*
X3632660Y1054446D1*
X3635578Y1051594D1*
X3638430Y1042972D1*
Y1017106D1*
X3609712D2*
Y1042972D1*
X3638430Y1075825D2*
X3578142D1*
X3638430Y1116017D2*
X3578142D1*
X3609712Y1075825D2*
Y1116017D1*
X3578142Y1180506D2*
X3638430Y1157492D1*
X3578142Y1134544D1*
X3598238Y1143166D2*
Y1171884D1*
X3609712Y1239225D2*
Y1213425D1*
X3612631Y1204803D1*
X3615482Y1201885D1*
X3621186Y1199033D1*
X3626956D1*
X3632660Y1201885D1*
X3635578Y1204803D1*
X3638430Y1213425D1*
Y1239225D1*
X3578142D1*
X3609712Y1219129D2*
X3578142Y1199033D1*
M02*
